<svg id="Livello_1" data-name="Livello 1" xmlns="http://www.w3.org/2000/svg" xmlns:xlink="http://www.w3.org/1999/xlink" viewBox="0 0 396.9 324.2"><defs><style>.cls-1{clip-path:url(#clip-path);}.cls-10,.cls-11,.cls-12,.cls-13,.cls-14,.cls-2,.cls-4,.cls-5,.cls-6,.cls-7,.cls-8,.cls-9{fill:none;}.cls-2{clip-path:url(#clip-path-10);}.cls-3{fill:url(#Gradient_bez_nazwy_2);}.cls-5{clip-path:url(#clip-path-2);}.cls-6{clip-path:url(#clip-path-3);}.cls-7{clip-path:url(#clip-path-4);}.cls-8{clip-path:url(#clip-path-5);}.cls-9{clip-path:url(#clip-path-6);}.cls-10{clip-path:url(#clip-path-7);}.cls-11{clip-path:url(#clip-path-8);}.cls-12{clip-path:url(#clip-path-9);}.cls-13{clip-path:url(#clip-path-12);}.cls-14{clip-path:url(#clip-path-13);}.cls-15{fill:url(#Gradient_bez_nazwy);}.cls-16{fill:#727272;}.cls-17{clip-path:url(#clip-path-14);}.cls-18{fill:#d8d8d8;}.cls-19{clip-path:url(#clip-path-15);}.cls-20{fill:url(#Gradient_bez_nazwy_4);}.cls-21{clip-path:url(#clip-path-16);}.cls-22{clip-path:url(#clip-path-17);}.cls-23{fill:url(#Gradient_bez_nazwy_7);}.cls-24{clip-path:url(#clip-path-18);}.cls-25{clip-path:url(#clip-path-19);}.cls-26{fill:url(#Gradient_bez_nazwy_10);}.cls-27{clip-path:url(#clip-path-20);}.cls-28{clip-path:url(#clip-path-21);}.cls-29{fill:url(#Gradient_bez_nazwy_13);}.cls-30{clip-path:url(#clip-path-22);}.cls-31{clip-path:url(#clip-path-23);}.cls-32{fill:url(#Gradient_bez_nazwy_16);}.cls-33{clip-path:url(#clip-path-24);}.cls-34{mask:url(#mask);}.cls-35{fill:url(#Gradient_bez_nazwy_3);}</style><clipPath id="clip-path"><polygon class="cls-2" points="-6 9 -7 9 -6 8 -6 9"/></clipPath><linearGradient id="Gradient_bez_nazwy_2" x1="296.8" y1="535.76" x2="296.8" y2="756.6" gradientTransform="translate(0 -87.81) scale(1 0.75)" gradientUnits="userSpaceOnUse"><stop offset="0" stop-color="gray"/><stop offset="1"/></linearGradient><clipPath id="clip-path-2"><polygon class="cls-4" points="251.3 377.8 251.5 377.7 251.3 378 251.3 377.8"/></clipPath><clipPath id="clip-path-3"><polygon class="cls-4" points="185.9 427.3 186.1 427.3 185.9 427.5 185.9 427.3"/></clipPath><clipPath id="clip-path-4"><polygon class="cls-4" points="190.1 430.3 190.3 430.2 190.1 430.4 190.1 430.3"/></clipPath><clipPath id="clip-path-5"><polygon class="cls-4" points="68.8 305.3 69.3 305.2 68.9 305.6 68.8 305.3"/></clipPath><clipPath id="clip-path-6"><polygon class="cls-4" points="312.1 310.9 312.3 310.9 312.1 311 312.1 310.9"/></clipPath><clipPath id="clip-path-7"><polygon class="cls-4" points="314.3 314.7 314.5 314.7 314.3 314.8 314.3 314.7"/></clipPath><clipPath id="clip-path-8"><polygon class="cls-4" points="171.6 447.3 172 447.2 171.7 447.7 171.6 447.3"/></clipPath><clipPath id="clip-path-9"><polygon class="cls-4" points="178.5 455.8 178.8 455.7 178.6 456.1 178.5 455.8"/></clipPath><clipPath id="clip-path-10"><polygon class="cls-4" points="-4 11 -3 11 -4 12 -4 11"/></clipPath><clipPath id="clip-path-12"><polygon class="cls-4" points="77.4 310.9 78 310.8 77.5 311.2 77.4 310.9"/></clipPath><clipPath id="clip-path-13"><polygon class="cls-4" points="246 371.1 246.2 371.1 246.1 371.4 246 371.1"/></clipPath><linearGradient id="Gradient_bez_nazwy" x1="139.7" y1="390.78" x2="463.9" y2="390.78" gradientTransform="matrix(1, 0, 0, -1, 0, 841.28)" gradientUnits="userSpaceOnUse"><stop offset="0" stop-color="#d4f2ff"/><stop offset="1" stop-color="#cfcfcf"/></linearGradient><clipPath id="clip-path-14" transform="translate(-67 -288.4)"><polygon class="cls-8" points="67.5 305.1 67 305.3 67.4 304.8 67.5 305.1"/></clipPath><clipPath id="clip-path-15" transform="translate(-67 -288.4)"><polygon class="cls-13" points="76.3 310.7 75.8 310.9 76.2 310.5 76.3 310.7"/></clipPath><linearGradient id="Gradient_bez_nazwy_4" x1="204.72" y1="475.38" x2="318.38" y2="475.38" gradientTransform="matrix(1, 0, 0, -1, 0, 841.28)" gradientUnits="userSpaceOnUse"><stop offset="0" stop-color="#d7eaf3"/><stop offset="0" stop-color="#d5effa"/><stop offset="0" stop-color="#a2a2a2"/><stop offset="1" stop-color="#dcdddd"/></linearGradient><clipPath id="clip-path-16" transform="translate(-67 -288.4)"><polygon class="cls-14" points="245.3 370.7 245 370.8 245.2 370.5 245.3 370.7"/></clipPath><clipPath id="clip-path-17" transform="translate(-67 -288.4)"><polygon class="cls-5" points="250.6 377.4 250.4 377.5 250.5 377.1 250.6 377.4"/></clipPath><linearGradient id="Gradient_bez_nazwy_7" x1="326.61" y1="384.08" x2="381.2" y2="384.08" gradientTransform="matrix(1, 0, 0, -1, 0, 841.28)" gradientUnits="userSpaceOnUse"><stop offset="0" stop-color="#d5effa"/><stop offset="0" stop-color="#a2a2a2"/><stop offset="1" stop-color="#dcdddd"/></linearGradient><clipPath id="clip-path-18" transform="translate(-67 -288.4)"><polygon class="cls-6" points="185.3 427.2 185 427.3 185.3 427.1 185.3 427.2"/></clipPath><clipPath id="clip-path-19" transform="translate(-67 -288.4)"><polygon class="cls-7" points="189.5 430.2 189.3 430.2 189.5 430 189.5 430.2"/></clipPath><linearGradient id="Gradient_bez_nazwy_10" x1="217.18" y1="491.91" x2="271.84" y2="491.91" gradientTransform="matrix(0.96, -0.14, 0.14, -0.55, -23.15, 764.3)" gradientUnits="userSpaceOnUse"><stop offset="0" stop-color="#fff"/><stop offset="0" stop-color="#a2a2a2"/><stop offset="1" stop-color="#878787"/></linearGradient><clipPath id="clip-path-20" transform="translate(-67 -288.4)"><polygon class="cls-9" points="311.7 310.6 311.5 310.6 311.7 310.5 311.7 310.6"/></clipPath><clipPath id="clip-path-21" transform="translate(-67 -288.4)"><polygon class="cls-10" points="313.9 314.4 313.7 314.4 313.9 314.3 313.9 314.4"/></clipPath><linearGradient id="Gradient_bez_nazwy_13" x1="232.69" y1="813.53" x2="287.32" y2="813.53" gradientTransform="matrix(0.79, 0.23, 0.3, -0.39, -77.22, 624.78)" xlink:href="#Gradient_bez_nazwy_10"/><clipPath id="clip-path-22" transform="translate(-67 -288.4)"><polygon class="cls-11" points="170.7 446.8 170.4 446.9 170.6 446.4 170.7 446.8"/></clipPath><clipPath id="clip-path-23" transform="translate(-67 -288.4)"><polygon class="cls-12" points="177.7 455.3 177.4 455.4 177.6 455 177.7 455.3"/></clipPath><linearGradient id="Gradient_bez_nazwy_16" x1="288.4" y1="259.15" x2="337.97" y2="308.73" gradientTransform="matrix(1, 0, 0, -1, 0, 841.28)" gradientUnits="userSpaceOnUse"><stop offset="0" stop-color="#fff"/><stop offset="0" stop-color="#a2a2a2"/><stop offset="1" stop-color="#d3d3d3"/></linearGradient><clipPath id="clip-path-24" transform="translate(-67 -288.4)"><polygon class="cls-2" points="-6 9 -7 9 -6 8 -6 9"/></clipPath><mask id="mask" x="-74" y="-280.4" width="414.22" height="472.02" maskUnits="userSpaceOnUse"><g transform="translate(-67 -288.4)"><g class="cls-1"><path class="cls-3" d="M407.22,397.15c0-45.77-49.44-82.87-110.42-82.87s-110.42,37.1-110.42,82.87S235.82,480,296.8,480s110.42-37.11,110.42-82.87Z"/></g></g></mask><linearGradient id="Gradient_bez_nazwy_3" x1="296.8" y1="535.76" x2="296.8" y2="756.6" gradientTransform="translate(0 -87.81) scale(1 0.75)" gradientUnits="userSpaceOnUse"><stop offset="0" stop-color="#fff" stop-opacity="0.53"/><stop offset="1" stop-color="#fff" stop-opacity="0.27"/></linearGradient></defs><path class="cls-15" d="M463.9,450.5A162.1,162.1,0,1,1,301.8,288.4c89.5-.1,162.1,72.5,162.1,162.1Z" transform="translate(-67 -288.4)"/><polygon id="SVGID" class="cls-16" points="1.8 16.9 2.3 16.8 1.9 17.2 1.8 16.9"/><polygon id="SVGID-2" data-name="SVGID" class="cls-16" points="0.5 16.7 0 16.9 0.4 16.4 0.5 16.7"/><g class="cls-17"><path class="cls-16" d="M324.1,345.6c-3.8-12.7-33.7-15-66.8-5s-56.8,28.3-53,41,33.7,15,66.8,5,56.8-28.3,53-41Z" transform="translate(-67 -288.4)"/></g><path class="cls-16" d="M324.1,345.6c-3.8-12.7-33.7-15-66.8-5s-56.8,28.3-53,41,33.7,15,66.8,5,56.8-28.3,53-41Z" transform="translate(-67 -288.4)"/><polygon id="SVGID-3" data-name="SVGID" class="cls-18" points="10.4 22.5 11 22.4 10.5 22.8 10.4 22.5"/><polygon id="SVGID-4" data-name="SVGID" class="cls-18" points="9.3 22.3 8.8 22.5 9.2 22.1 9.3 22.3"/><g class="cls-19"><path class="cls-18" d="M318,348.9c-3.6-12-31.8-14.1-63-4.7s-53.5,26.7-49.9,38.7,31.8,14.1,63,4.7,53.5-26.7,49.9-38.7Z" transform="translate(-67 -288.4)"/></g><path class="cls-20" d="M318,348.9c-3.6-12-31.8-14.1-63-4.7s-53.5,26.7-49.9,38.7,31.8,14.1,63,4.7,53.5-26.7,49.9-38.7Z" transform="translate(-67 -288.4)"/><polygon id="SVGID-5" data-name="SVGID" class="cls-16" points="179 82.7 179.2 82.7 179.1 83 179 82.7"/><polygon id="SVGID-6" data-name="SVGID" class="cls-16" points="178.3 82.3 178 82.4 178.2 82.1 178.3 82.3"/><g class="cls-21"><path class="cls-16" d="M383.1,446.9c-3.8-12.7-19.5-19.2-35.1-14.6s-25,18.8-21.2,31.5,19.5,19.2,35.1,14.6,25-18.7,21.2-31.5Z" transform="translate(-67 -288.4)"/></g><path class="cls-16" d="M383.1,446.9c-3.8-12.7-19.5-19.2-35.1-14.6s-25,18.8-21.2,31.5,19.5,19.2,35.1,14.6,25-18.7,21.2-31.5Z" transform="translate(-67 -288.4)"/><polygon id="SVGID-7" data-name="SVGID" class="cls-18" points="184.3 89.4 184.5 89.3 184.3 89.6 184.3 89.4"/><polygon id="SVGID-8" data-name="SVGID" class="cls-18" points="183.6 89 183.4 89.1 183.5 88.7 183.6 89"/><g class="cls-22"><path class="cls-18" d="M380.4,449.2c-3.6-12-18.4-18.1-33-13.7s-23.6,17.7-20,29.7,18.4,18.1,33,13.7,23.6-17.7,20-29.7Z" transform="translate(-67 -288.4)"/></g><path class="cls-23" d="M380.4,449.2c-3.6-12-18.4-18.1-33-13.7s-23.6,17.7-20,29.7,18.4,18.1,33,13.7,23.6-17.7,20-29.7Z" transform="translate(-67 -288.4)"/><polygon id="SVGID-9" data-name="SVGID" class="cls-16" points="118.9 138.9 119.1 138.9 118.9 139.1 118.9 138.9"/><polygon id="SVGID-10" data-name="SVGID" class="cls-16" points="118.3 138.8 118 138.9 118.3 138.7 118.3 138.8"/><g class="cls-24"><path class="cls-16" d="M307.2,450.6c-2-6.5-16.1-8-31.7-3.3s-26.6,13.7-24.6,20.2,16.1,8,31.7,3.3,26.6-13.7,24.6-20.2Z" transform="translate(-67 -288.4)"/></g><path class="cls-16" d="M307.2,450.6c-2-6.5-16.1-8-31.7-3.3s-26.6,13.7-24.6,20.2,16.1,8,31.7,3.3,26.6-13.7,24.6-20.2Z" transform="translate(-67 -288.4)"/><polygon id="SVGID-11" data-name="SVGID" class="cls-18" points="123.1 141.9 123.3 141.8 123.1 142 123.1 141.9"/><polygon id="SVGID-12" data-name="SVGID" class="cls-18" points="122.5 141.8 122.3 141.8 122.5 141.6 122.5 141.8"/><g class="cls-25"><path class="cls-18" d="M304.4,452.2c-1.8-6.1-15.2-7.5-29.9-3.1s-25,12.9-23.2,19.1,15.2,7.5,29.9,3.1,25-13,23.2-19.1Z" transform="translate(-67 -288.4)"/></g><path class="cls-26" d="M304.4,452.2c-1.8-6.1-15.2-7.5-29.9-3.1s-25,12.9-23.2,19.1,15.2,7.5,29.9,3.1,25-13,23.2-19.1Z" transform="translate(-67 -288.4)"/><polygon id="SVGID-13" data-name="SVGID" class="cls-16" points="245.1 22.5 245.3 22.5 245.1 22.6 245.1 22.5"/><polygon id="SVGID-14" data-name="SVGID" class="cls-16" points="244.7 22.2 244.5 22.2 244.7 22.1 244.7 22.2"/><g class="cls-27"><path class="cls-16" d="M398.4,372.2c.8-5.8-9.8-12-23.5-13.8s-25.5,1.5-26.3,7.3,9.8,12,23.5,13.8,25.5-1.5,26.3-7.3Z" transform="translate(-67 -288.4)"/></g><path class="cls-16" d="M398.4,372.2c.8-5.8-9.8-12-23.5-13.8s-25.5,1.5-26.3,7.3,9.8,12,23.5,13.8,25.5-1.5,26.3-7.3Z" transform="translate(-67 -288.4)"/><polygon id="SVGID-15" data-name="SVGID" class="cls-18" points="247.3 26.3 247.5 26.3 247.3 26.4 247.3 26.3"/><polygon id="SVGID-16" data-name="SVGID" class="cls-18" points="246.9 26 246.7 26 246.9 25.9 246.9 26"/><g class="cls-28"><path class="cls-18" d="M395.6,372.4c.7-5.5-9.2-11.3-22.1-13s-24,1.4-24.7,6.9,9.2,11.3,22.1,13,24-1.4,24.7-6.9Z" transform="translate(-67 -288.4)"/></g><path class="cls-29" d="M395.6,372.4c.7-5.5-9.2-11.3-22.1-13s-24,1.4-24.7,6.9,9.2,11.3,22.1,13,24-1.4,24.7-6.9Z" transform="translate(-67 -288.4)"/><polygon id="SVGID-17" data-name="SVGID" class="cls-16" points="104.6 158.9 105 158.8 104.7 159.3 104.6 158.9"/><polygon id="SVGID-18" data-name="SVGID" class="cls-16" points="103.7 158.4 103.4 158.5 103.6 158 103.7 158.4"/><g class="cls-30"><path class="cls-16" d="M351.7,543.9c-4.9-16.4-25.6-24.7-46.1-18.5s-33.2,24.5-28.3,40.8,25.6,24.7,46.1,18.5,33.2-24.4,28.3-40.8Z" transform="translate(-67 -288.4)"/></g><path class="cls-16" d="M351.7,543.9c-4.9-16.4-25.6-24.7-46.1-18.5s-33.2,24.5-28.3,40.8,25.6,24.7,46.1,18.5,33.2-24.4,28.3-40.8Z" transform="translate(-67 -288.4)"/><polygon id="SVGID-19" data-name="SVGID" class="cls-18" points="111.5 167.4 111.8 167.3 111.6 167.7 111.5 167.4"/><polygon id="SVGID-20" data-name="SVGID" class="cls-18" points="110.7 166.9 110.4 167 110.6 166.6 110.7 166.9"/><g class="cls-31"><path class="cls-18" d="M348.2,546.8c-4.6-15.4-24.1-23.2-43.4-17.4s-31.3,23-26.6,38.5,24.1,23.2,43.4,17.4,31.2-23.1,26.6-38.5Z" transform="translate(-67 -288.4)"/></g><path class="cls-32" d="M348.2,546.8c-4.6-15.4-24.1-23.2-43.4-17.4s-31.3,23-26.6,38.5,24.1,23.2,43.4,17.4,31.2-23.1,26.6-38.5Z" transform="translate(-67 -288.4)"/><g id="SVGID-21" data-name="SVGID"><g class="cls-33"><g class="cls-34"><path class="cls-3" d="M407.22,397.15c0-45.77-49.44-82.87-110.42-82.87s-110.42,37.1-110.42,82.87S235.82,480,296.8,480s110.42-37.11,110.42-82.87Z" transform="translate(-67 -288.4)"/></g></g></g><path class="cls-35" d="M407.22,397.15c0-45.77-49.44-82.87-110.42-82.87s-110.42,37.1-110.42,82.87S235.82,480,296.8,480s110.42-37.11,110.42-82.87Z" transform="translate(-67 -288.4)"/></svg>