<svg id="Livello_1" data-name="Livello 1" xmlns="http://www.w3.org/2000/svg" xmlns:xlink="http://www.w3.org/1999/xlink" viewBox="0 0 557.79 557.81"><defs><style>.cls-1{clip-path:url(#clip-path);}.cls-2,.cls-4{fill:none;}.cls-2{clip-path:url(#clip-path-2);}.cls-3{fill:url(#Gradient_bez_nazwy_2);}.cls-5{fill:url(#Gradient_bez_nazwy);}.cls-6{clip-path:url(#clip-path-4);}.cls-7{mask:url(#mask);}.cls-8{fill:url(#Gradient_bez_nazwy_3);}.cls-9{fill:url(#Gradient_bez_nazwy_4);}.cls-10{fill:url(#Gradient_bez_nazwy_5);}.cls-11{fill:url(#Gradient_bez_nazwy_6);}.cls-12{fill:url(#Gradient_bez_nazwy_7);}.cls-13{fill:url(#Gradient_bez_nazwy_8);}.cls-14{fill:url(#Gradient_bez_nazwy_9);}.cls-15{fill:url(#Gradient_bez_nazwy_10);}.cls-16{fill:url(#Gradient_bez_nazwy_11);}.cls-17{fill:url(#Gradient_bez_nazwy_12);}.cls-18{fill:url(#Gradient_bez_nazwy_13);}.cls-19{fill:url(#Gradient_bez_nazwy_14);}.cls-20{fill:url(#Gradient_bez_nazwy_15);}.cls-21{fill:url(#Gradient_bez_nazwy_16);}.cls-22{fill:url(#Gradient_bez_nazwy_17);}.cls-23{fill:url(#Gradient_bez_nazwy_18);}.cls-24{fill:url(#Gradient_bez_nazwy_19);}.cls-25{fill:url(#Gradient_bez_nazwy_20);}.cls-26{fill:url(#Gradient_bez_nazwy_21);}.cls-27{fill:url(#Gradient_bez_nazwy_22);}.cls-28{fill:url(#Gradient_bez_nazwy_23);}.cls-29{fill:url(#Gradient_bez_nazwy_24);}.cls-30{fill:url(#Gradient_bez_nazwy_25);}.cls-31{fill:url(#Gradient_bez_nazwy_26);}.cls-32{fill:url(#Gradient_bez_nazwy_27);}.cls-33{fill:url(#Gradient_bez_nazwy_28);}.cls-34{fill:url(#Gradient_bez_nazwy_29);}.cls-35{fill:url(#Gradient_bez_nazwy_30);}.cls-36{fill:url(#Gradient_bez_nazwy_31);}.cls-37{fill:url(#Gradient_bez_nazwy_32);}.cls-38{fill:url(#Gradient_bez_nazwy_33);}.cls-39{fill:url(#Gradient_bez_nazwy_34);}.cls-40{fill:url(#Gradient_bez_nazwy_35);}.cls-41{fill:url(#Gradient_bez_nazwy_36);}.cls-42{fill:url(#Gradient_bez_nazwy_37);}.cls-43{fill:url(#Gradient_bez_nazwy_38);}.cls-44{fill:url(#Gradient_bez_nazwy_39);}.cls-45{fill:url(#Gradient_bez_nazwy_40);}.cls-46{fill:url(#Gradient_bez_nazwy_41);}.cls-47{fill:url(#Gradient_bez_nazwy_42);}.cls-48{fill:url(#Gradient_bez_nazwy_43);}.cls-49{fill:url(#Gradient_bez_nazwy_44);}.cls-50{fill:url(#Gradient_bez_nazwy_45);}.cls-51{fill:url(#Gradient_bez_nazwy_46);}.cls-52{fill:url(#Gradient_bez_nazwy_47);}.cls-53{fill:url(#Gradient_bez_nazwy_48);}.cls-54{fill:url(#Gradient_bez_nazwy_49);}.cls-55{fill:url(#Gradient_bez_nazwy_50);}.cls-56{fill:url(#Gradient_bez_nazwy_51);}.cls-57{fill:url(#Gradient_bez_nazwy_52);}.cls-58{fill:url(#Gradient_bez_nazwy_53);}.cls-59{fill:url(#Gradient_bez_nazwy_54);}.cls-60{fill:url(#Gradient_bez_nazwy_55);}.cls-61{fill:url(#Gradient_bez_nazwy_56);}.cls-62{fill:url(#Gradient_bez_nazwy_57);}.cls-63{fill:url(#Gradient_bez_nazwy_58);}.cls-64{fill:url(#Gradient_bez_nazwy_59);}.cls-65{fill:url(#Gradient_bez_nazwy_60);}.cls-66{fill:url(#Gradient_bez_nazwy_61);}.cls-67{fill:url(#Gradient_bez_nazwy_62);}.cls-68{fill:url(#Gradient_bez_nazwy_63);}.cls-69{fill:url(#Gradient_bez_nazwy_64);}.cls-70{fill:url(#Gradient_bez_nazwy_65);}.cls-71{fill:url(#Gradient_bez_nazwy_66);}.cls-72{fill:url(#Gradient_bez_nazwy_67);}.cls-73{fill:url(#Gradient_bez_nazwy_68);}.cls-74{fill:url(#Gradient_bez_nazwy_69);}.cls-75{fill:url(#Gradient_bez_nazwy_70);}.cls-76{fill:url(#Gradient_bez_nazwy_71);}.cls-77{fill:url(#Gradient_bez_nazwy_72);}.cls-78{fill:url(#Gradient_bez_nazwy_73);}.cls-79{fill:url(#Gradient_bez_nazwy_74);}.cls-80{fill:url(#Gradient_bez_nazwy_75);}</style><clipPath id="clip-path"><polygon class="cls-2" points="-1 -1 -2 -1 -1 -2 -1 -1"/></clipPath><linearGradient id="Gradient_bez_nazwy_2" x1="301.8" y1="522.44" x2="301.8" y2="743.27" gradientTransform="translate(0 -87.81) scale(1 0.75)" gradientUnits="userSpaceOnUse"><stop offset="0" stop-color="gray"/><stop offset="1"/></linearGradient><clipPath id="clip-path-2"><polygon class="cls-4" points="1 1 2 1 1 2 1 1"/></clipPath><radialGradient id="Gradient_bez_nazwy" cx="301.8" cy="390.82" r="162.14" gradientTransform="matrix(1, 0, 0, -1, 0, 841.28)" gradientUnits="userSpaceOnUse"><stop offset="0" stop-color="#f39400"/><stop offset="0.22" stop-color="#f49700"/><stop offset="0.4" stop-color="#f49e00"/><stop offset="0.56" stop-color="#f6ab00"/><stop offset="0.71" stop-color="#f7bd0f"/><stop offset="0.85" stop-color="#f8d120"/><stop offset="0.99" stop-color="#f9e831"/><stop offset="1" stop-color="#f9ea32"/></radialGradient><clipPath id="clip-path-4" transform="translate(-22.9 -171.55)"><polygon class="cls-2" points="-1 -1 -2 -1 -1 -2 -1 -1"/></clipPath><mask id="mask" x="-24.9" y="-173.55" width="414.22" height="472.02" maskUnits="userSpaceOnUse"><g transform="translate(-22.9 -171.55)"><g class="cls-1"><path class="cls-3" d="M412.22,387.15c0-45.77-49.44-82.87-110.42-82.87s-110.42,37.1-110.42,82.87S240.82,470,301.8,470s110.42-37.11,110.42-82.87Z"/></g></g></mask><linearGradient id="Gradient_bez_nazwy_3" x1="301.8" y1="522.44" x2="301.8" y2="743.27" gradientTransform="translate(0 -87.81) scale(1 0.75)" gradientUnits="userSpaceOnUse"><stop offset="0" stop-color="#fff" stop-opacity="0.53"/><stop offset="1" stop-color="#fff" stop-opacity="0.27"/></linearGradient><linearGradient id="Gradient_bez_nazwy_4" x1="-572.68" y1="514.49" x2="-572.68" y2="597.63" gradientTransform="translate(-237.91 852.08) rotate(175)" gradientUnits="userSpaceOnUse"><stop offset="0" stop-color="#f3e600"/><stop offset="0.01" stop-color="#f2e500"/><stop offset="0.15" stop-color="#eee348"/><stop offset="0.29" stop-color="#eae16b"/><stop offset="0.45" stop-color="#e6df81"/><stop offset="0.61" stop-color="#e4de8e"/><stop offset="0.78" stop-color="#e2dd96"/><stop offset="1" stop-color="#e2dd98"/></linearGradient><linearGradient id="Gradient_bez_nazwy_5" x1="-593.15" y1="591.1" x2="-593.15" y2="674.24" gradientTransform="translate(-326.57 826.73) rotate(-175)" xlink:href="#Gradient_bez_nazwy_4"/><linearGradient id="Gradient_bez_nazwy_6" x1="-539.94" y1="441.12" x2="-539.94" y2="524.25" gradientTransform="matrix(-0.97, 0.26, -0.26, -0.97, -147.36, 860.31)" xlink:href="#Gradient_bez_nazwy_4"/><linearGradient id="Gradient_bez_nazwy_7" x1="-495.07" y1="375.4" x2="-495.07" y2="458.53" gradientTransform="matrix(-0.91, 0.42, -0.42, -0.91, -56.48, 853.56)" xlink:href="#Gradient_bez_nazwy_4"/><linearGradient id="Gradient_bez_nazwy_8" x1="-439.8" y1="318.97" x2="-439.8" y2="402.11" gradientTransform="matrix(-0.82, 0.57, -0.57, -0.82, 31.87, 831.76)" xlink:href="#Gradient_bez_nazwy_4"/><linearGradient id="Gradient_bez_nazwy_9" x1="-374.46" y1="272.06" x2="-374.46" y2="355.19" gradientTransform="translate(115.23 793.44) rotate(135)" xlink:href="#Gradient_bez_nazwy_4"/><linearGradient id="Gradient_bez_nazwy_10" x1="-302.98" y1="238.13" x2="-302.98" y2="321.26" gradientTransform="matrix(-0.57, 0.82, -0.82, -0.57, 190.82, 742.64)" xlink:href="#Gradient_bez_nazwy_4"/><linearGradient id="Gradient_bez_nazwy_11" x1="-225.65" y1="216.11" x2="-225.65" y2="299.24" gradientTransform="matrix(-0.42, 0.91, -0.91, -0.42, 255.97, 678.04)" xlink:href="#Gradient_bez_nazwy_4"/><linearGradient id="Gradient_bez_nazwy_12" x1="-146.18" y1="208.13" x2="-146.18" y2="291.26" gradientTransform="matrix(-0.26, 0.97, -0.97, -0.26, 309.04, 603.72)" xlink:href="#Gradient_bez_nazwy_4"/><linearGradient id="Gradient_bez_nazwy_13" x1="-67.44" y1="214.07" x2="-67.44" y2="297.2" gradientTransform="translate(348.33 522.23) rotate(95)" xlink:href="#Gradient_bez_nazwy_4"/><linearGradient id="Gradient_bez_nazwy_14" x1="10.53" y1="234.54" x2="10.53" y2="317.67" gradientTransform="translate(373.68 433.58) rotate(85)" xlink:href="#Gradient_bez_nazwy_4"/><linearGradient id="Gradient_bez_nazwy_15" x1="83.03" y1="266.66" x2="83.03" y2="349.79" gradientTransform="matrix(0.26, 0.97, -0.97, 0.26, 381.92, 343.03)" xlink:href="#Gradient_bez_nazwy_4"/><linearGradient id="Gradient_bez_nazwy_16" x1="148.73" y1="311.77" x2="148.73" y2="394.91" gradientTransform="matrix(0.42, 0.91, -0.91, 0.42, 375.17, 252.15)" xlink:href="#Gradient_bez_nazwy_4"/><linearGradient id="Gradient_bez_nazwy_17" x1="205.23" y1="368.11" x2="205.23" y2="451.24" gradientTransform="matrix(0.57, 0.82, -0.82, 0.57, 353.37, 163.79)" xlink:href="#Gradient_bez_nazwy_4"/><linearGradient id="Gradient_bez_nazwy_18" x1="252.28" y1="432.46" x2="252.28" y2="515.59" gradientTransform="translate(315.04 80.44) rotate(45)" xlink:href="#Gradient_bez_nazwy_4"/><linearGradient id="Gradient_bez_nazwy_19" x1="286.34" y1="504.92" x2="286.34" y2="588.04" gradientTransform="matrix(0.82, 0.57, -0.57, 0.82, 264.25, 4.84)" xlink:href="#Gradient_bez_nazwy_4"/><linearGradient id="Gradient_bez_nazwy_20" x1="308.44" y1="581.21" x2="308.44" y2="664.34" gradientTransform="matrix(0.91, 0.42, -0.42, 0.91, 199.64, -60.31)" xlink:href="#Gradient_bez_nazwy_4"/><linearGradient id="Gradient_bez_nazwy_21" x1="316.39" y1="660.42" x2="316.39" y2="743.57" gradientTransform="matrix(0.97, 0.26, -0.26, 0.97, 125.33, -113.38)" xlink:href="#Gradient_bez_nazwy_4"/><linearGradient id="Gradient_bez_nazwy_22" x1="309.58" y1="739.78" x2="309.58" y2="822.91" gradientTransform="translate(43.83 -152.67) rotate(5)" xlink:href="#Gradient_bez_nazwy_4"/><linearGradient id="Gradient_bez_nazwy_23" x1="290.48" y1="817.76" x2="290.48" y2="900.89" gradientTransform="translate(-44.82 -178.02) rotate(-5)" xlink:href="#Gradient_bez_nazwy_4"/><linearGradient id="Gradient_bez_nazwy_24" x1="257.5" y1="889.64" x2="257.5" y2="972.78" gradientTransform="matrix(0.97, -0.26, 0.26, 0.97, -135.37, -186.26)" xlink:href="#Gradient_bez_nazwy_4"/><linearGradient id="Gradient_bez_nazwy_25" x1="212.36" y1="955.58" x2="212.36" y2="1038.71" gradientTransform="matrix(0.91, -0.42, 0.42, 0.91, -226.25, -179.51)" xlink:href="#Gradient_bez_nazwy_4"/><linearGradient id="Gradient_bez_nazwy_26" x1="156.09" y1="1013.13" x2="156.09" y2="1096.25" gradientTransform="matrix(0.82, -0.57, 0.57, 0.82, -314.6, -157.71)" xlink:href="#Gradient_bez_nazwy_4"/><linearGradient id="Gradient_bez_nazwy_27" x1="91.87" y1="1059.2" x2="91.87" y2="1142.34" gradientTransform="translate(-397.96 -119.38) rotate(-45)" xlink:href="#Gradient_bez_nazwy_4"/><linearGradient id="Gradient_bez_nazwy_28" x1="19.54" y1="1094.23" x2="19.54" y2="1177.36" gradientTransform="matrix(0.57, -0.82, 0.82, 0.57, -473.55, -68.59)" xlink:href="#Gradient_bez_nazwy_4"/><linearGradient id="Gradient_bez_nazwy_29" x1="-56.66" y1="1115.28" x2="-56.66" y2="1198.42" gradientTransform="matrix(0.42, -0.91, 0.91, 0.42, -538.71, -3.98)" xlink:href="#Gradient_bez_nazwy_4"/><linearGradient id="Gradient_bez_nazwy_30" x1="-135.92" y1="1123" x2="-135.92" y2="1206.12" gradientTransform="matrix(0.26, -0.97, 0.97, 0.26, -591.78, 70.33)" xlink:href="#Gradient_bez_nazwy_4"/><linearGradient id="Gradient_bez_nazwy_31" x1="-216.13" y1="1116.8" x2="-216.13" y2="1199.92" gradientTransform="translate(-631.07 151.83) rotate(-85)" xlink:href="#Gradient_bez_nazwy_4"/><linearGradient id="Gradient_bez_nazwy_32" x1="-292.74" y1="1097.71" x2="-292.74" y2="1180.84" gradientTransform="translate(-656.42 240.48) rotate(-95)" xlink:href="#Gradient_bez_nazwy_4"/><linearGradient id="Gradient_bez_nazwy_33" x1="-365.49" y1="1064.1" x2="-365.49" y2="1147.23" gradientTransform="matrix(-0.26, -0.97, 0.97, -0.26, -664.66, 331.03)" xlink:href="#Gradient_bez_nazwy_4"/><linearGradient id="Gradient_bez_nazwy_34" x1="-431.45" y1="1019.21" x2="-431.45" y2="1102.34" gradientTransform="matrix(-0.42, -0.91, 0.91, -0.42, -657.91, 421.91)" xlink:href="#Gradient_bez_nazwy_4"/><linearGradient id="Gradient_bez_nazwy_35" x1="-488.93" y1="964.01" x2="-488.93" y2="1047.14" gradientTransform="matrix(-0.57, -0.82, 0.82, -0.57, -636.11, 510.27)" xlink:href="#Gradient_bez_nazwy_4"/><linearGradient id="Gradient_bez_nazwy_36" x1="-534.88" y1="898.81" x2="-534.88" y2="981.94" gradientTransform="translate(-597.79 593.62) rotate(-135)" xlink:href="#Gradient_bez_nazwy_4"/><linearGradient id="Gradient_bez_nazwy_37" x1="-569.78" y1="827.46" x2="-569.78" y2="910.58" gradientTransform="matrix(-0.82, -0.57, 0.57, -0.82, -546.99, 669.22)" xlink:href="#Gradient_bez_nazwy_4"/><linearGradient id="Gradient_bez_nazwy_38" x1="-590.74" y1="750.19" x2="-590.74" y2="833.32" gradientTransform="matrix(-0.91, -0.42, 0.42, -0.91, -482.39, 734.37)" xlink:href="#Gradient_bez_nazwy_4"/><linearGradient id="Gradient_bez_nazwy_39" x1="-598.48" y1="670.71" x2="-598.48" y2="753.84" gradientTransform="matrix(-0.97, -0.26, 0.26, -0.97, -408.07, 787.44)" xlink:href="#Gradient_bez_nazwy_4"/><linearGradient id="Gradient_bez_nazwy_40" x1="301.8" y1="552.29" x2="301.8" y2="669.73" gradientTransform="matrix(1, 0, 0, -1, 0, 841.28)" gradientUnits="userSpaceOnUse"><stop offset="0" stop-color="#f9b03d"/><stop offset="0.04" stop-color="#f9b63d"/><stop offset="0.2" stop-color="#f9ca3b"/><stop offset="0.37" stop-color="#f9d938"/><stop offset="0.55" stop-color="#f9e235"/><stop offset="0.75" stop-color="#f9e833"/><stop offset="1" stop-color="#f9ea32"/></linearGradient><linearGradient id="Gradient_bez_nazwy_41" x1="280.67" y1="520.51" x2="280.67" y2="637.96" gradientTransform="matrix(0.98, -0.17, -0.17, -0.98, 87.72, 852.77)" xlink:href="#Gradient_bez_nazwy_40"/><linearGradient id="Gradient_bez_nazwy_42" x1="253.47" y1="492.66" x2="253.47" y2="610.12" gradientTransform="matrix(0.94, -0.34, -0.34, -0.94, 176.88, 848.37)" xlink:href="#Gradient_bez_nazwy_40"/><linearGradient id="Gradient_bez_nazwy_43" x1="222.1" y1="469.51" x2="222.1" y2="586.95" gradientTransform="matrix(0.87, -0.5, -0.5, -0.87, 263.49, 828.27)" xlink:href="#Gradient_bez_nazwy_40"/><linearGradient id="Gradient_bez_nazwy_44" x1="187.18" y1="452.35" x2="187.18" y2="569.8" gradientTransform="matrix(0.77, -0.64, -0.64, -0.77, 345.41, 793.59)" xlink:href="#Gradient_bez_nazwy_40"/><linearGradient id="Gradient_bez_nazwy_45" x1="150.63" y1="442.35" x2="150.63" y2="559.79" gradientTransform="matrix(0.64, -0.77, -0.77, -0.64, 420.12, 746.4)" xlink:href="#Gradient_bez_nazwy_40"/><linearGradient id="Gradient_bez_nazwy_46" x1="111.96" y1="438.16" x2="111.96" y2="555.6" gradientTransform="matrix(0.5, -0.87, -0.87, -0.5, 485.44, 685.76)" xlink:href="#Gradient_bez_nazwy_40"/><linearGradient id="Gradient_bez_nazwy_47" x1="72.95" y1="440.78" x2="72.95" y2="558.23" gradientTransform="matrix(0.34, -0.94, -0.94, -0.34, 539.33, 614.53)" xlink:href="#Gradient_bez_nazwy_40"/><linearGradient id="Gradient_bez_nazwy_48" x1="35.4" y1="449.83" x2="35.4" y2="567.28" gradientTransform="matrix(0.17, -0.98, -0.98, -0.17, 579.64, 535.36)" xlink:href="#Gradient_bez_nazwy_40"/><linearGradient id="Gradient_bez_nazwy_49" x1="0.34" y1="466.08" x2="0.34" y2="583.52" gradientTransform="matrix(0, -1, -1, 0, 606.42, 450.79)" xlink:href="#Gradient_bez_nazwy_40"/><linearGradient id="Gradient_bez_nazwy_50" x1="-31.18" y1="487.95" x2="-31.18" y2="605.41" gradientTransform="matrix(-0.17, -0.98, -0.98, 0.17, 617.91, 363.07)" xlink:href="#Gradient_bez_nazwy_40"/><linearGradient id="Gradient_bez_nazwy_51" x1="-59.3" y1="514.75" x2="-59.3" y2="632.2" gradientTransform="matrix(-0.34, -0.94, -0.94, 0.34, 613.51, 273.92)" xlink:href="#Gradient_bez_nazwy_40"/><linearGradient id="Gradient_bez_nazwy_52" x1="-82.09" y1="545.59" x2="-82.09" y2="663.03" gradientTransform="matrix(-0.5, -0.87, -0.87, 0.5, 593.41, 187.3)" xlink:href="#Gradient_bez_nazwy_40"/><linearGradient id="Gradient_bez_nazwy_53" x1="-99.17" y1="580.1" x2="-99.17" y2="697.56" gradientTransform="matrix(-0.64, -0.77, -0.77, 0.64, 558.73, 105.38)" xlink:href="#Gradient_bez_nazwy_40"/><linearGradient id="Gradient_bez_nazwy_54" x1="-109.19" y1="617.87" x2="-109.19" y2="735.31" gradientTransform="matrix(-0.77, -0.64, -0.64, 0.77, 511.54, 30.67)" xlink:href="#Gradient_bez_nazwy_40"/><linearGradient id="Gradient_bez_nazwy_55" x1="-113.44" y1="656.13" x2="-113.44" y2="773.57" gradientTransform="matrix(-0.87, -0.5, -0.5, 0.87, 450.9, -34.65)" xlink:href="#Gradient_bez_nazwy_40"/><linearGradient id="Gradient_bez_nazwy_56" x1="-111.15" y1="694.59" x2="-111.15" y2="812.03" gradientTransform="matrix(-0.94, -0.34, -0.34, 0.94, 379.68, -88.55)" xlink:href="#Gradient_bez_nazwy_40"/><linearGradient id="Gradient_bez_nazwy_57" x1="-101.85" y1="731.76" x2="-101.85" y2="849.2" gradientTransform="matrix(-0.98, -0.17, -0.17, 0.98, 300.5, -128.86)" xlink:href="#Gradient_bez_nazwy_40"/><linearGradient id="Gradient_bez_nazwy_58" x1="-85.87" y1="767.54" x2="-85.87" y2="884.98" gradientTransform="matrix(-1, 0, 0, 1, 215.93, -155.63)" xlink:href="#Gradient_bez_nazwy_40"/><linearGradient id="Gradient_bez_nazwy_59" x1="-63.76" y1="799.8" x2="-63.76" y2="917.26" gradientTransform="matrix(-0.98, 0.17, 0.17, 0.98, 128.2, -167.12)" xlink:href="#Gradient_bez_nazwy_40"/><linearGradient id="Gradient_bez_nazwy_60" x1="-37.21" y1="827.51" x2="-37.21" y2="944.96" gradientTransform="matrix(-0.94, 0.34, 0.34, 0.94, 39.05, -162.72)" xlink:href="#Gradient_bez_nazwy_40"/><linearGradient id="Gradient_bez_nazwy_61" x1="-6" y1="849.77" x2="-6" y2="967.23" gradientTransform="matrix(-0.87, 0.5, 0.5, 0.87, -47.56, -142.62)" xlink:href="#Gradient_bez_nazwy_40"/><linearGradient id="Gradient_bez_nazwy_62" x1="28.58" y1="866.45" x2="28.58" y2="983.91" gradientTransform="matrix(-0.77, 0.64, 0.64, 0.77, -129.48, -107.94)" xlink:href="#Gradient_bez_nazwy_40"/><linearGradient id="Gradient_bez_nazwy_63" x1="66.31" y1="877.69" x2="66.31" y2="995.14" gradientTransform="matrix(-0.64, 0.77, 0.77, 0.64, -204.2, -60.74)" xlink:href="#Gradient_bez_nazwy_40"/><linearGradient id="Gradient_bez_nazwy_64" x1="104.53" y1="881.53" x2="104.53" y2="998.98" gradientTransform="matrix(-0.5, 0.87, 0.87, 0.5, -269.52, -0.11)" xlink:href="#Gradient_bez_nazwy_40"/><linearGradient id="Gradient_bez_nazwy_65" x1="142.65" y1="878.69" x2="142.65" y2="996.13" gradientTransform="matrix(-0.34, 0.94, 0.94, 0.34, -323.41, 71.12)" xlink:href="#Gradient_bez_nazwy_40"/><linearGradient id="Gradient_bez_nazwy_66" x1="180.08" y1="868.98" x2="180.08" y2="986.45" gradientTransform="matrix(-0.17, 0.98, 0.98, 0.17, -363.72, 150.3)" xlink:href="#Gradient_bez_nazwy_40"/><linearGradient id="Gradient_bez_nazwy_67" x1="215.59" y1="853.74" x2="215.59" y2="971.18" gradientTransform="matrix(0, 1, 1, 0, -390.49, 234.86)" xlink:href="#Gradient_bez_nazwy_40"/><linearGradient id="Gradient_bez_nazwy_68" x1="248.09" y1="832.36" x2="248.09" y2="949.82" gradientTransform="matrix(0.17, 0.98, 0.98, -0.17, -401.98, 322.59)" xlink:href="#Gradient_bez_nazwy_40"/><linearGradient id="Gradient_bez_nazwy_69" x1="275.55" y1="805.42" x2="275.55" y2="922.86" gradientTransform="matrix(0.34, 0.94, 0.94, -0.34, -397.58, 411.75)" xlink:href="#Gradient_bez_nazwy_40"/><linearGradient id="Gradient_bez_nazwy_70" x1="298.17" y1="773.69" x2="298.17" y2="891.13" gradientTransform="matrix(0.5, 0.87, 0.87, -0.5, -377.48, 498.35)" xlink:href="#Gradient_bez_nazwy_40"/><linearGradient id="Gradient_bez_nazwy_71" x1="314.93" y1="738.7" x2="314.93" y2="856.16" gradientTransform="matrix(0.64, 0.77, 0.77, -0.64, -342.8, 580.27)" xlink:href="#Gradient_bez_nazwy_40"/><linearGradient id="Gradient_bez_nazwy_72" x1="326.13" y1="702.17" x2="326.13" y2="819.62" gradientTransform="matrix(0.77, 0.64, 0.64, -0.77, -295.6, 654.99)" xlink:href="#Gradient_bez_nazwy_40"/><linearGradient id="Gradient_bez_nazwy_73" x1="329.92" y1="663.56" x2="329.92" y2="781" gradientTransform="matrix(0.87, 0.5, 0.5, -0.87, -234.97, 720.31)" xlink:href="#Gradient_bez_nazwy_40"/><linearGradient id="Gradient_bez_nazwy_74" x1="326.75" y1="624.9" x2="326.75" y2="742.34" gradientTransform="matrix(0.94, 0.34, 0.34, -0.94, -163.74, 774.2)" xlink:href="#Gradient_bez_nazwy_40"/><linearGradient id="Gradient_bez_nazwy_75" x1="317.31" y1="587.07" x2="317.31" y2="704.52" gradientTransform="matrix(0.98, 0.17, 0.17, -0.98, -84.56, 814.51)" xlink:href="#Gradient_bez_nazwy_40"/></defs><path class="cls-5" d="M463.94,450.46A162.14,162.14,0,1,1,301.8,288.32,162.14,162.14,0,0,1,463.94,450.46Z" transform="translate(-22.9 -171.55)"/><g id="SVGID"><g class="cls-6"><g class="cls-7"><path class="cls-3" d="M412.22,387.15c0-45.77-49.44-82.87-110.42-82.87s-110.42,37.1-110.42,82.87S240.82,470,301.8,470s110.42-37.11,110.42-82.87Z" transform="translate(-22.9 -171.55)"/></g></g></g><path class="cls-8" d="M412.22,387.15c0-45.77-49.44-82.87-110.42-82.87s-110.42,37.1-110.42,82.87S240.82,470,301.8,470s110.42-37.11,110.42-82.87Z" transform="translate(-22.9 -171.55)"/><path class="cls-9" d="M280.48,206.79s6.56,19.31,8.62,29,.47,20.16,2.66,30.29,6.45,22.64,6.45,22.64l-10.48.92-10.48.92s-.74-13.14-.42-23.18,4.3-20.61,4.7-30.93-1-29.63-1-29.63Z" transform="translate(-22.9 -171.55)"/><path class="cls-10" d="M323.12,206.79s3.1,20.16,3.47,30-3,19.93-2.65,30.29,2.41,23.42,2.41,23.42l-10.48-.92-10.48-.92S307,275.62,309,265.79s7.8-19.55,10-29.65,4.12-29.36,4.12-29.36Z" transform="translate(-22.9 -171.55)"/><path class="cls-11" d="M238.49,214.2s9.81,17.89,13.52,27,4,19.77,7.88,29.36,10.28,21.19,10.28,21.19L260,294.49l-10.17,2.73s-3-12.81-4.43-22.76.65-21-.75-31.27-6.17-29-6.17-29Z" transform="translate(-22.9 -171.55)"/><path class="cls-12" d="M198.43,228.78s12.76,15.91,18,24.26,7.34,18.79,12.86,27.55,13.8,19.08,13.8,19.08l-9.53,4.45L224,308.56s-5.19-12.09-8.32-21.64-3-20.83-6.17-30.67-11.1-27.47-11.1-27.47Z" transform="translate(-22.9 -171.55)"/><path class="cls-13" d="M161.51,250.1s15.33,13.45,22,20.76,10.49,17.23,17.45,24.9,16.9,16.4,16.9,16.4l-8.62,6-8.62,6s-7.21-11-11.94-19.87-6.59-20-11.41-29.13-15.73-25.13-15.73-25.13Z" transform="translate(-22.9 -171.55)"/><path class="cls-14" d="M128.85,277.5s17.44,10.59,25.22,16.64,13.32,15.15,21.5,21.49,19.5,13.21,19.5,13.21l-7.44,7.44-7.44,7.44s-9-9.59-15.21-17.49-10-18.55-16.29-26.71-19.84-22-19.84-22Z" transform="translate(-22.9 -171.55)"/><path class="cls-15" d="M101.44,310.16s19,7.4,27.72,12,15.75,12.6,24.91,17.43,21.5,9.62,21.5,9.62l-6,8.62-6,8.62s-10.54-7.88-18-14.59-13-16.53-20.68-23.47-23.35-18.25-23.35-18.25Z" transform="translate(-22.9 -171.55)"/><path class="cls-16" d="M80.13,347.08s20,4,29.38,7,17.7,9.67,27.57,12.84,22.83,5.75,22.83,5.75l-4.45,9.53L151,391.75s-11.75-5.94-20.28-11.24-15.7-14-24.45-19.52-26.15-13.91-26.15-13.91Z" transform="translate(-22.9 -171.55)"/><path class="cls-17" d="M65.54,387.15s20.4.45,30.16,1.8,19.11,6.45,29.38,7.86,23.48,1.69,23.48,1.69l-2.72,10.16-2.72,10.17s-12.61-3.81-21.93-7.54-17.9-11.09-27.46-15-28.2-9.14-28.2-9.14Z" transform="translate(-22.9 -171.55)"/><path class="cls-18" d="M58.14,429.14s20.16-3.1,30-3.46,19.94,3,30.29,2.63,23.43-2.41,23.43-2.41L141,436.39,140,446.86s-13.06-1.55-22.89-3.61-19.55-7.81-29.65-10-29.34-4.13-29.34-4.13Z" transform="translate(-22.9 -171.55)"/><path class="cls-19" d="M58.14,471.77s19.31-6.56,29-8.63,20.16-.47,30.28-2.66S140,454,140,454l.92,10.48.92,10.48s-13.14.74-23.18.41-20.61-4.29-30.93-4.69-29.61,1-29.61,1Z" transform="translate(-22.9 -171.55)"/><path class="cls-20" d="M65.54,513.76s17.89-9.81,27-13.53,19.78-4,29.37-7.88,21.19-10.27,21.19-10.27l2.72,10.16,2.72,10.17s-12.81,3-22.75,4.42-21-.65-31.28.76-29,6.18-29,6.18Z" transform="translate(-22.9 -171.55)"/><path class="cls-21" d="M80.12,553.82s15.92-12.76,24.27-18,18.78-7.33,27.54-12.85S151,509.16,151,509.16l4.44,9.53,4.45,9.54s-12.09,5.18-21.64,8.31-20.83,3-30.67,6.17-27.48,11.11-27.48,11.11Z" transform="translate(-22.9 -171.55)"/><path class="cls-22" d="M101.44,590.74s13.45-15.33,20.77-21.94,17.22-10.49,24.89-17.45,16.4-16.91,16.4-16.91l6,8.62,6,8.62s-11,7.21-19.87,12-20,6.58-29.13,11.4-25.13,15.72-25.13,15.72Z" transform="translate(-22.9 -171.55)"/><path class="cls-23" d="M128.85,623.4s10.59-17.43,16.64-25.22,15.14-13.32,21.49-21.51,13.21-19.49,13.21-19.49l7.44,7.44,7.44,7.45s-9.59,9-17.49,15.21-18.55,10-26.71,16.29-22,19.83-22,19.83Z" transform="translate(-22.9 -171.55)"/><path class="cls-24" d="M161.51,650.8s7.4-19,12-27.72,12.6-15.75,17.43-24.91,9.62-21.49,9.62-21.49l8.62,6,8.62,6s-7.88,10.53-14.59,18-16.53,13-23.47,20.69S161.5,650.8,161.5,650.8Z" transform="translate(-22.9 -171.55)"/><path class="cls-25" d="M198.43,672.13s4-20,7-29.4,9.67-17.69,12.83-27.55S224,592.34,224,592.34l9.53,4.45,9.53,4.45s-5.93,11.74-11.23,20.27-14,15.7-19.53,24.45-13.9,26.16-13.9,26.16Z" transform="translate(-22.9 -171.55)"/><path class="cls-26" d="M238.49,686.7s.45-20.39,1.8-30.15,6.46-19.11,7.86-29.38,1.7-23.48,1.7-23.48L260,606.41l10.16,2.72s-3.8,12.6-7.55,21.92-11.07,17.9-15,27.47-9.16,28.2-9.16,28.2Z" transform="translate(-22.9 -171.55)"/><path class="cls-27" d="M280.48,694.11s-3.1-20.16-3.46-30,3-19.94,2.63-30.29-2.4-23.43-2.4-23.43l10.48.92,10.47.92s-1.55,13.07-3.62,22.89-7.81,19.55-10,29.66-4.12,29.33-4.12,29.33Z" transform="translate(-22.9 -171.55)"/><path class="cls-28" d="M323.12,694.11s-6.56-19.32-8.62-29S314,645,311.83,634.87s-6.43-22.64-6.43-22.64l10.47-.93,10.48-.91s.74,13.14.41,23.18-4.29,20.61-4.69,30.93,1,29.61,1,29.61Z" transform="translate(-22.9 -171.55)"/><path class="cls-29" d="M365.1,686.71s-9.81-17.89-13.52-27-4-19.77-7.88-29.37-10.27-21.19-10.27-21.19l10.15-2.72,10.17-2.72s3,12.81,4.42,22.76-.65,21,.76,31.27,6.17,29,6.17,29Z" transform="translate(-22.9 -171.55)"/><path class="cls-30" d="M405.16,672.13s-12.77-15.91-18-24.25-7.34-18.8-12.86-27.56-13.81-19.08-13.81-19.08l9.54-4.45,9.54-4.45s5.18,12.1,8.3,21.64,3,20.84,6.18,30.68,11.1,27.46,11.1,27.46Z" transform="translate(-22.9 -171.55)"/><path class="cls-31" d="M442.08,650.8S426.75,637.36,420.13,630s-10.48-17.23-17.44-24.9-16.9-16.39-16.9-16.39l8.61-6,8.62-6s7.21,11,11.94,19.87,6.59,20,11.41,29.13,15.7,25.12,15.7,25.12Z" transform="translate(-22.9 -171.55)"/><path class="cls-32" d="M474.75,623.4s-17.44-10.58-25.22-16.63-13.32-15.15-21.5-21.49-19.49-13.21-19.49-13.21l7.43-7.45,7.44-7.44s9,9.6,15.21,17.49,10,18.55,16.29,26.72,19.84,22,19.84,22Z" transform="translate(-22.9 -171.55)"/><path class="cls-33" d="M502.15,590.74s-19-7.4-27.73-12-15.74-12.61-24.91-17.44S428,551.68,428,551.68l6-8.62,6-8.61s10.54,7.88,18,14.58,13,16.54,20.69,23.48,23.36,18.22,23.36,18.22Z" transform="translate(-22.9 -171.55)"/><path class="cls-34" d="M523.47,553.82s-20-4-29.39-7-17.7-9.68-27.56-12.84-22.83-5.75-22.83-5.75l4.44-9.53,4.45-9.54s11.74,5.93,20.27,11.24,15.7,14,24.45,19.52,26.18,13.92,26.18,13.92Z" transform="translate(-22.9 -171.55)"/><path class="cls-35" d="M538,513.76s-20.39-.45-30.15-1.8-19.11-6.46-29.37-7.86S455,502.41,455,502.41l2.72-10.16,2.72-10.17s12.6,3.8,21.92,7.55,17.9,11.08,27.47,15S538,513.75,538,513.75Z" transform="translate(-22.9 -171.55)"/><path class="cls-36" d="M545.45,471.77s-20.16,3.1-30,3.46-19.93-3-30.28-2.64S461.73,475,461.73,475l.91-10.48.92-10.48s13.06,1.55,22.89,3.63,19.56,7.8,29.65,10,29.33,4.11,29.33,4.11Z" transform="translate(-22.9 -171.55)"/><path class="cls-37" d="M545.45,429.14s-19.31,6.55-29,8.63-20.15.46-30.28,2.66-22.65,6.43-22.65,6.43l-.92-10.47-.91-10.49s13.13-.73,23.17-.4,20.61,4.29,30.94,4.68,29.62-1.05,29.62-1.05Z" transform="translate(-22.9 -171.55)"/><path class="cls-38" d="M538,387.15s-17.88,9.81-27,13.53-19.78,3.95-29.36,7.88-21.2,10.27-21.2,10.27l-2.72-10.16L455,398.5s12.81-3,22.76-4.42,21,.65,31.27-.76,29-6.18,29-6.18Z" transform="translate(-22.9 -171.55)"/><path class="cls-39" d="M523.47,347.09s-15.91,12.76-24.26,18-18.79,7.33-27.55,12.85-19.08,13.8-19.08,13.8l-4.45-9.53-4.44-9.54s12.09-5.18,21.64-8.31,20.83-3,30.67-6.17,27.46-11.11,27.46-11.11Z" transform="translate(-22.9 -171.55)"/><path class="cls-40" d="M502.15,310.16s-13.46,15.34-20.76,21.95-17.23,10.48-24.9,17.45-16.4,16.9-16.4,16.9l-6-8.61-6-8.62s11-7.21,19.86-12,20-6.59,29.13-11.41,25.14-15.71,25.14-15.71Z" transform="translate(-22.9 -171.55)"/><path class="cls-41" d="M474.75,277.5s-10.58,17.44-16.64,25.22S443,316,436.63,324.23s-13.22,19.49-13.22,19.49L416,336.29l-7.43-7.45s9.58-9,17.48-15.21,18.55-10,26.72-16.29,22-19.84,22-19.84Z" transform="translate(-22.9 -171.55)"/><path class="cls-42" d="M442.09,250.1s-7.39,19-12,27.73-12.6,15.74-17.42,24.91S403,324.23,403,324.23l-8.62-6-8.61-6s7.88-10.54,14.58-18,16.53-13,23.47-20.69,18.23-23.34,18.23-23.34Z" transform="translate(-22.9 -171.55)"/><path class="cls-43" d="M405.16,228.78s-4,20-7,29.39-9.67,17.69-12.83,27.56-5.75,22.83-5.75,22.83L370,304.12l-9.53-4.45s5.92-11.74,11.23-20.27,14-15.71,19.52-24.45,13.91-26.17,13.91-26.17Z" transform="translate(-22.9 -171.55)"/><path class="cls-44" d="M365.1,214.2s-.45,20.39-1.8,30.16-6.45,19.11-7.86,29.37-1.69,23.49-1.69,23.49l-10.16-2.72-10.17-2.73s3.8-12.6,7.54-21.91S352,252,356,242.39s9.16-28.19,9.16-28.19Z" transform="translate(-22.9 -171.55)"/><path class="cls-45" d="M301.8,171.55s-6.85,28-8.57,41.81,1.82,28.44,0,43S286.93,289,286.93,289h29.73s-.58-18.59-2.27-32.67-8.58-28.48-10.42-43-2.19-41.81-2.19-41.81Z" transform="translate(-22.9 -171.55)"/><path class="cls-46" d="M253.37,175.79s-1.88,28.76-1.18,42.66,6.73,27.69,7.44,42.31-.5,33.26-.5,33.26l14.63-2.57,14.64-2.59s-3.8-18.2-7.91-31.78-13.4-26.55-17.71-40.49-9.41-40.78-9.41-40.78Z" transform="translate(-22.9 -171.55)"/><path class="cls-47" d="M206.41,188.37s3.14,28.65,6.25,42.23,11.43,26.09,14.67,40.36,5.28,32.85,5.28,32.85l14-5.08,14-5.09s-6.9-17.26-13.31-29.92-17.8-23.83-24.47-36.8-16.35-38.57-16.35-38.57Z" transform="translate(-22.9 -171.55)"/><path class="cls-48" d="M162.35,208.92s8.06,27.67,13.48,40.49,15.79,23.72,21.46,37.21,10.9,31.43,10.9,31.43l12.88-7.42,12.87-7.44s-9.8-15.8-18.31-27.16-21.67-20.37-30.49-32-22.79-35.13-22.79-35.13Z" transform="translate(-22.9 -171.55)"/><path class="cls-49" d="M122.52,236.8s12.75,25.85,20.31,37.54,19.67,20.62,27.6,32.91,16.19,29.07,16.19,29.07L198,326.77l11.39-9.56s-12.4-13.86-22.75-23.56-24.88-16.31-35.59-26.21-28.53-30.65-28.53-30.65Z" transform="translate(-22.9 -171.55)"/><path class="cls-50" d="M88.15,271.18s17,23.24,26.52,33.44,23,16.89,32.89,27.63,21,25.8,21,25.8l9.55-11.38,9.56-11.39S173.05,323.79,161.18,316s-27.34-11.74-39.6-19.64-33.42-25.2-33.42-25.2Z" transform="translate(-22.9 -171.55)"/><path class="cls-51" d="M60.26,311s20.83,19.92,31.93,28.33,25.53,12.64,37.19,21.5,25.16,21.76,25.16,21.76L162,369.72l7.43-12.87S153,348.06,140,342.49,111,335.68,97.56,330s-37.29-19-37.29-19Z" transform="translate(-22.9 -171.55)"/><path class="cls-52" d="M39.72,355.06s24,16,36.36,22.36,27.34,8,40.36,14.71S145,409.19,145,409.19l5.08-14,5.09-14s-17.67-5.81-31.48-9-29.7-1.69-43.92-4.91-40-12.27-40-12.27Z" transform="translate(-22.9 -171.55)"/><path class="cls-53" d="M27.14,402s26.38,11.6,39.69,15.7,28.31,3.15,42.3,7.48S140.21,437,140.21,437l2.58-14.63,2.58-14.64s-18.4-2.64-32.57-3.43-29.53,3.51-44.11,2.8S27.14,402,27.14,402Z" transform="translate(-22.9 -171.55)"/><path class="cls-54" d="M22.9,450.45s28,6.85,41.81,8.57,28.44-1.81,43,0,32.67,6.28,32.67,6.28V435.59s-18.59.58-32.67,2.27-28.48,8.59-43,10.42-41.81,2.17-41.81,2.17Z" transform="translate(-22.9 -171.55)"/><path class="cls-55" d="M27.14,498.89s28.75,1.88,42.66,1.17,27.69-6.72,42.31-7.43,33.26.5,33.26.5l-2.58-14.64-2.58-14.63s-18.2,3.8-31.77,7.91-26.57,13.4-40.5,17.72-40.82,9.42-40.82,9.42Z" transform="translate(-22.9 -171.55)"/><path class="cls-56" d="M39.72,545.85s28.65-3.14,42.22-6.25,26.1-11.43,40.37-14.67,32.85-5.28,32.85-5.28l-5.09-14-5.08-14s-17.26,6.9-29.92,13.31-23.83,17.8-36.8,24.47-38.56,16.36-38.56,16.36Z" transform="translate(-22.9 -171.55)"/><path class="cls-57" d="M60.26,589.9s27.67-8.06,40.5-13.48S124.48,560.62,138,555s31.43-10.9,31.43-10.9L162,531.19l-7.43-12.88s-15.81,9.8-27.16,18.31-20.37,21.67-32,30.49S60.27,589.9,60.27,589.9Z" transform="translate(-22.9 -171.55)"/><path class="cls-58" d="M88.15,629.73S114,617,125.69,609.41s20.61-19.67,32.91-27.59,29.07-16.2,29.07-16.2l-9.56-11.38-9.55-11.39S154.7,555.25,145,565.59s-16.3,24.88-26.22,35.59-30.64,28.55-30.64,28.55Z" transform="translate(-22.9 -171.55)"/><path class="cls-59" d="M122.52,664.1s23.24-17,33.44-26.51,16.89-23,27.63-32.9,25.8-21,25.8-21L198,574.14l-11.39-9.55s-11.5,14.61-19.25,26.49-11.74,27.32-19.64,39.59-25.23,33.41-25.23,33.41Z" transform="translate(-22.9 -171.55)"/><path class="cls-60" d="M162.35,692s19.93-20.82,28.33-31.94,12.64-25.52,21.49-37.18,21.77-25.16,21.77-25.16l-12.87-7.43-12.87-7.43s-8.79,16.38-14.36,29.43-6.81,29-12.47,42.4-19,37.29-19,37.29Z" transform="translate(-22.9 -171.55)"/><path class="cls-61" d="M206.41,712.53s16-24,22.35-36.36,8-27.34,14.71-40.35,17.07-28.56,17.07-28.56l-14-5.08-14-5.09s-5.81,17.66-9,31.48-1.67,29.69-4.9,43.92-12.26,40-12.26,40Z" transform="translate(-22.9 -171.55)"/><path class="cls-62" d="M253.37,725.12s11.61-26.39,15.7-39.69,3.15-28.32,7.48-42.3S288.4,612,288.4,612l-14.63-2.57-14.64-2.58s-2.65,18.39-3.43,32.56,3.5,29.54,2.79,44.11-5.11,41.56-5.11,41.56Z" transform="translate(-22.9 -171.55)"/><path class="cls-63" d="M301.8,729.35s6.85-28,8.57-41.81-1.82-28.43,0-42.95,6.27-32.68,6.27-32.68H286.94s.58,18.6,2.27,32.67,8.58,28.48,10.41,43,2.18,41.82,2.18,41.82Z" transform="translate(-22.9 -171.55)"/><path class="cls-64" d="M350.23,725.12s1.88-28.76,1.18-42.67-6.73-27.69-7.44-42.3.51-33.27.51-33.27l-14.64,2.59L315.2,612s3.8,18.21,7.92,31.78,13.39,26.56,17.71,40.49,9.4,40.82,9.4,40.82Z" transform="translate(-22.9 -171.55)"/><path class="cls-65" d="M397.19,712.53s-3.14-28.65-6.25-42.22-11.43-26.1-14.67-40.36S371,597.09,371,597.09l-14,5.09-14,5.08s6.9,17.26,13.31,29.92S374.17,661,380.84,674s16.36,38.54,16.36,38.54Z" transform="translate(-22.9 -171.55)"/><path class="cls-66" d="M441.24,692s-8.07-27.67-13.48-40.5S412,627.77,406.3,614.29s-10.91-31.44-10.91-31.44l-12.86,7.43-12.88,7.43s9.8,15.8,18.31,27.15,21.67,20.38,30.49,32S441.24,692,441.24,692Z" transform="translate(-22.9 -171.55)"/><path class="cls-67" d="M481.07,664.1s-12.75-25.85-20.31-37.54-19.67-20.61-27.6-32.92S417,564.58,417,564.58l-11.38,9.56-11.39,9.55s12.39,13.86,22.75,23.56,24.87,16.3,35.58,26.22,28.55,30.65,28.55,30.65Z" transform="translate(-22.9 -171.55)"/><path class="cls-68" d="M515.45,629.73s-17.05-23.25-26.52-33.45S466,579.4,456,568.66s-21-25.81-21-25.81l-9.56,11.39-9.55,11.38s14.61,11.5,26.49,19.26,27.33,11.73,39.6,19.64,33.43,25.2,33.43,25.2Z" transform="translate(-22.9 -171.55)"/><path class="cls-69" d="M543.33,589.91S522.51,570,511.4,561.57s-25.53-12.63-37.19-21.49-25.16-21.77-25.16-21.77l-7.42,12.87-7.44,12.88s16.38,8.78,29.43,14.36,28.95,6.81,42.41,12.47,37.31,19,37.31,19Z" transform="translate(-22.9 -171.55)"/><path class="cls-70" d="M563.87,545.85s-24-16-36.36-22.36-27.33-8-40.35-14.7-28.56-17.07-28.56-17.07l-5.08,14-5.09,14s17.67,5.81,31.48,9,29.69,1.68,43.92,4.91,40,12.25,40,12.25Z" transform="translate(-22.9 -171.55)"/><path class="cls-71" d="M576.46,498.89s-26.38-11.61-39.69-15.7-28.32-3.15-42.29-7.47-31.09-11.86-31.09-11.86l-2.58,14.63-2.59,14.64s18.41,2.65,32.57,3.44,29.54-3.51,44.11-2.79,41.58,5.1,41.58,5.1Z" transform="translate(-22.9 -171.55)"/><path class="cls-72" d="M580.69,450.46s-28-6.85-41.81-8.58-28.44,1.83-42.95,0-32.68-6.27-32.68-6.27v29.72s18.58-.58,32.67-2.27,28.48-8.59,42.95-10.41,41.82-2.18,41.82-2.18Z" transform="translate(-22.9 -171.55)"/><path class="cls-73" d="M576.46,402s-28.76-1.88-42.67-1.18-27.68,6.73-42.3,7.44-33.26-.51-33.26-.51l2.58,14.64L463.38,437s18.2-3.79,31.79-7.91,26.55-13.39,40.48-17.71S576.47,402,576.47,402Z" transform="translate(-22.9 -171.55)"/><path class="cls-74" d="M563.87,355.06s-28.65,3.14-42.22,6.25-26.1,11.43-40.37,14.67-32.85,5.28-32.85,5.28l5.09,14,5.07,14s17.27-6.9,29.93-13.31,23.82-17.8,36.8-24.47,38.54-16.36,38.54-16.36Z" transform="translate(-22.9 -171.55)"/><path class="cls-75" d="M543.33,311s-27.67,8.07-40.5,13.48-23.71,15.8-37.2,21.47-31.44,10.9-31.44,10.9l7.43,12.87,7.43,12.87s15.81-9.79,27.16-18.3,20.38-21.67,32-30.49S543.33,311,543.33,311Z" transform="translate(-22.9 -171.55)"/><path class="cls-76" d="M515.45,271.18s-25.85,12.75-37.54,20.31S457.3,311.16,445,319.09s-29.07,16.19-29.07,16.19l9.56,11.39L435,358.05s13.86-12.39,23.56-22.74,16.31-24.87,26.21-35.58,30.63-28.57,30.63-28.57Z" transform="translate(-22.9 -171.55)"/><path class="cls-77" d="M481.07,236.8s-23.24,17-33.44,26.52-16.89,23-27.63,32.89-25.8,21-25.8,21l11.38,9.56L417,336.32s11.5-14.61,19.26-26.49S448,282.5,455.86,270.24s25.21-33.43,25.21-33.43Z" transform="translate(-22.9 -171.55)"/><path class="cls-78" d="M441.25,208.92s-19.93,20.82-28.34,31.92S400.28,266.38,391.42,278s-21.76,25.16-21.76,25.16l12.87,7.43,12.87,7.43s8.78-16.38,14.36-29.43,6.82-28.95,12.47-42.4,19-37.3,19-37.3Z" transform="translate(-22.9 -171.55)"/><path class="cls-79" d="M397.19,188.37s-16,24-22.36,36.36-8,27.34-14.71,40.36-17.06,28.56-17.06,28.56l14,5.07,14,5.09s5.81-17.66,9-31.48,1.69-29.69,4.91-43.92,12.26-40,12.26-40Z" transform="translate(-22.9 -171.55)"/><path class="cls-80" d="M350.23,175.79s-11.6,26.38-15.7,39.69-3.14,28.31-7.48,42.29-11.85,31.09-11.85,31.09l14.64,2.58L344.47,294s2.66-18.4,3.44-32.58-3.51-29.53-2.79-44.1,5.11-41.57,5.11-41.57Z" transform="translate(-22.9 -171.55)"/></svg>